HIERARCHY
ROOT Hips
{
	OFFSET 0.00000 0.00000 0.00000
	CHANNELS 6 Xposition Yposition Zposition Zrotation Yrotation Xrotation 
	JOINT LHipJoint
	{
		OFFSET 0 0 0
		CHANNELS 3 Zrotation Yrotation Xrotation
		JOINT LeftHip
		{
			OFFSET 1.34019 -1.87553 0.90315
			CHANNELS 3 Zrotation Yrotation Xrotation
			JOINT LeftKnee
			{
				OFFSET 2.55316 -7.01474 0.00000
				CHANNELS 3 Zrotation Yrotation Xrotation
				JOINT LeftAnkle
				{
					OFFSET 2.64657 -7.27139 0.00000
					CHANNELS 3 Zrotation Yrotation Xrotation
					JOINT LeftToe
					{
						OFFSET 0.24207 -0.66507 2.14489
						CHANNELS 3 Zrotation Yrotation Xrotation
						End Site
						{
							OFFSET 0.00000 -0.00000 1.12451
						}
					}
				}
			}
		}
	}
	JOINT RHipJoint
	{
		OFFSET 0 0 0
		CHANNELS 3 Zrotation Yrotation Xrotation
		JOINT RightHip
		{
			OFFSET -1.28320 -1.87553 0.90315
			CHANNELS 3 Zrotation Yrotation Xrotation
			JOINT RightKnee
			{
				OFFSET -2.60484 -7.15674 0.00000
				CHANNELS 3 Zrotation Yrotation Xrotation
				JOINT RightAnkle
				{
					OFFSET -2.60296 -7.15159 0.00000
					CHANNELS 3 Zrotation Yrotation Xrotation
					JOINT RightToe
					{
						OFFSET -0.31082 -0.85398 2.28998
						CHANNELS 3 Zrotation Yrotation Xrotation
						End Site
						{
							OFFSET -0.00000 -0.00000 1.21611
						}
					}
				}
			}
		}
	}
	JOINT lowerback
	{
		OFFSET 0 0 0
		CHANNELS 3 Zrotation Yrotation Xrotation
		JOINT Chest
		{
			OFFSET -0.00160 2.05581 -0.15156
			CHANNELS 3 Zrotation Yrotation Xrotation
			JOINT Chest2
			{
				OFFSET 0.04594 2.06326 -0.01617
				CHANNELS 3 Zrotation Yrotation Xrotation
				JOINT lowerneck
				{
					OFFSET 0 0 0
					CHANNELS 3 Zrotation Yrotation Xrotation
					JOINT Neck
					{
						OFFSET 0.03753 1.73883 0.26751
						CHANNELS 3 Zrotation Yrotation Xrotation
						JOINT Head
						{
							OFFSET -0.09795 1.76129 -0.31794
							CHANNELS 3 Zrotation Yrotation Xrotation
							End Site
							{
								OFFSET -0.03611 1.79987 -0.13846
							}
						}
					}
				}
				JOINT LeftCollar
				{
					OFFSET 0 0 0
					CHANNELS 3 Zrotation Yrotation Xrotation
					JOINT LeftShoulder
					{
						OFFSET 3.30667 1.29205 -0.22445
CHANNELS 3 Zrotation Xrotation Yrotation
						JOINT LeftElbow
						{
OFFSET 0 -4.927850 -0.000000
CHANNELS 3 Zrotation Xrotation Yrotation
							JOINT LeftWrist
							{
OFFSET 0 -3.440520 0.000000
CHANNELS 3 Zrotation Xrotation Yrotation
								JOINT lhand
								{
									OFFSET 0 0 0
CHANNELS 3 Zrotation Xrotation Yrotation
									JOINT LFingers
									{
OFFSET 0 -0.654330 0.000000
CHANNELS 3 Zrotation Xrotation Yrotation
										End Site
										{
OFFSET 0 -0.527530 0.000000
										}
									}
								}
								JOINT LThumb
								{
OFFSET 0 0.000000 0.000000
CHANNELS 3 Zrotation Xrotation Yrotation
									End Site
									{
OFFSET 0 -0.535590 0.535590
									}
								}
							}
						}
					}
				}
				JOINT RightCollar
				{
					OFFSET 0 0 0
					CHANNELS 3 Zrotation Yrotation Xrotation
					JOINT RightShoulder
					{
						OFFSET -3.20032 1.49783 -0.27688
CHANNELS 3 Zrotation Xrotation Yrotation
						JOINT RightElbow
						{
OFFSET 0 -5.091810 -0.000000
CHANNELS 3 Zrotation Xrotation Yrotation
							JOINT RightWrist
							{
OFFSET 0 -3.498650 -0.000000
CHANNELS 3 Zrotation Xrotation Yrotation
								JOINT rhand
								{
									OFFSET 0 0 0
CHANNELS 3 Zrotation Xrotation Yrotation
									JOINT RFingers
									{
OFFSET 0 -0.666410 0.000000
CHANNELS 3 Zrotation Xrotation Yrotation
										End Site
										{
OFFSET 0 -0.537280 0.000000
										}
									}
								}
								JOINT RThumb
								{
OFFSET 0 0.000000 0.000000
CHANNELS 3 Zrotation Xrotation Yrotation
									End Site
									{
OFFSET 0 -0.545480 0.545480
									}
								}
							}
						}
					}
				}
			}
		}
	}
}
MOTION
Frames: 9
Frame Time: 0.008333333333333333
1.657712 16.695570 -10.102726 -2.659928 1.385346 2.272677 0.000000 0.000000 0.000000 -20.839475 -4.717957 -29.509558 8.902858 16.744848 55.753561 1.674983 2.152911 -25.309787 0.323488 -3.655776 -10.110053 0.000000 0.000000 0.000000 16.203982 5.329802 -41.372039 -16.029967 -19.617565 78.320925 -0.373149 -12.327223 -21.717266 -0.175138 2.695534 -7.432207 -1.862182 0.679092 21.812211 2.598611 0.731755 1.488395 3.731041 0.507208 -10.659846 5.413614 1.206934 -18.745939 -5.081606 1.159833 15.696901 -2.445254 0.360887 8.001175 0.000000 0.000000 0.000000 8.628836 0.600690 -20.753531 27.289860 -38.454145 9.678808 22.528678 -15.092062 13.133624 0.000000 0.000000 0.000000 -7.125000 0.000000 0.000000 -3.303627 15.819040 -2.281855 0.000000 0.000000 0.000000 -9.007121 6.702586 30.098769 -39.372128 -47.693382 -17.973484 -18.068807 -6.168416 2.668774 0.000000 0.000000 0.000000 7.125000 0.000000 0.000000 6.905589 32.732907 2.087990
1.649748 16.707034 -9.981156 -2.490921 1.825298 2.503053 0.000000 0.000000 0.000000 -21.029033 -4.583994 -29.281937 8.863049 16.718718 55.615117 1.701860 1.906271 -25.402092 0.342897 -3.762818 -10.410233 0.000000 0.000000 0.000000 15.650514 5.689992 -42.268319 -15.500647 -19.506766 76.739859 -0.387091 -12.308505 -21.832358 -0.174221 2.688881 -7.413657 -1.943134 0.532719 21.852084 2.555557 0.515316 1.470271 3.796565 0.409202 -10.684747 5.423174 1.201616 -18.702024 -5.082889 1.150412 15.630946 -2.447413 0.357185 7.971115 0.000000 0.000000 0.000000 8.702273 -0.059129 -21.452554 27.517205 -38.667836 9.820564 22.580210 -15.051779 13.156758 0.000000 0.000000 0.000000 -7.125000 0.000000 0.000000 -3.269319 15.788834 -2.260133 0.000000 0.000000 0.000000 -8.923061 6.686540 29.853955 -39.679575 -47.878819 -18.201262 -18.083985 -6.258218 2.905002 0.000000 0.000000 0.000000 7.125000 0.000000 0.000000 6.915730 32.980002 2.049561
1.642024 16.719013 -9.860165 -2.346260 2.313673 2.742101 0.000000 0.000000 0.000000 -21.197692 -4.599495 -29.019588 8.821319 16.691354 55.470023 1.716837 1.823412 -25.476105 0.363078 -3.870606 -10.712995 0.000000 0.000000 0.000000 15.106168 6.011877 -43.145689 -14.957090 -19.377658 75.106460 -0.388618 -12.331072 -21.872740 -0.172059 2.671999 -7.366872 -1.982705 0.371357 21.892148 2.524213 0.290716 1.447854 3.854180 0.305986 -10.713497 5.408099 1.187185 -18.641406 -5.069430 1.132628 15.545564 -2.441232 0.349761 7.930945 0.000000 0.000000 0.000000 8.764717 -0.753091 -22.118218 27.741514 -38.877044 9.961079 22.656336 -14.977064 13.238397 0.000000 0.000000 0.000000 -7.125000 0.000000 0.000000 -3.220998 15.693404 -2.233236 0.000000 0.000000 0.000000 -8.848281 6.694578 29.583484 -40.014988 -48.078540 -18.450450 -18.124406 -6.405279 3.131539 0.000000 0.000000 0.000000 7.125000 0.000000 0.000000 6.904844 33.217717 2.006368
1.634408 16.730761 -9.739697 -2.231429 2.835973 2.980701 0.000000 0.000000 0.000000 -21.339733 -4.754164 -28.718124 8.781204 16.664802 55.330259 1.721506 1.896931 -25.539777 0.382701 -3.972457 -10.999166 0.000000 0.000000 0.000000 14.578833 6.316738 -43.990835 -14.405189 -19.230507 73.436742 -0.375376 -12.399524 -21.820779 -0.168257 2.642695 -7.285507 -1.984003 0.202083 21.934645 2.507379 0.066737 1.427402 3.905888 0.201675 -10.741216 5.388602 1.169465 -18.597995 -5.063131 1.111367 15.432191 -2.436903 0.339359 7.884292 0.000000 0.000000 0.000000 8.812534 -1.480921 -22.751578 27.966797 -39.085479 10.102787 22.757285 -14.861479 13.333882 0.000000 0.000000 0.000000 -7.125000 0.000000 0.000000 -3.156422 15.580234 -2.196004 0.000000 0.000000 0.000000 -8.785634 6.719161 29.284041 -40.370150 -48.287362 -18.715174 -18.171928 -6.565363 3.332879 0.000000 0.000000 0.000000 7.125000 0.000000 0.000000 6.886079 33.429525 1.965384
1.626677 16.742033 -9.619740 -2.135928 3.377239 3.213828 0.000000 0.000000 0.000000 -21.466671 -5.034720 -28.380856 8.746502 16.641768 55.209223 1.717246 2.119267 -25.601552 0.401489 -4.067847 -11.267657 0.000000 0.000000 0.000000 14.059043 6.620414 -44.802909 -13.852006 -19.066292 71.750124 -0.345629 -12.522387 -21.668752 -0.163016 2.601466 -7.171094 -1.967305 0.034467 21.985428 2.504872 -0.149072 1.410519 3.961004 0.100801 -10.770222 5.365761 1.145722 -18.542715 -5.067356 1.083610 15.258550 -2.435565 0.324652 7.815369 0.000000 0.000000 0.000000 8.838423 -2.241413 -23.354316 28.197365 -39.297072 10.248509 22.854481 -14.710818 13.435176 0.000000 0.000000 0.000000 -7.125000 0.000000 0.000000 -3.094990 15.461105 -2.161101 0.000000 0.000000 0.000000 -8.744096 6.761577 28.957997 -40.746282 -48.505464 -18.996427 -18.196848 -6.722801 3.514697 0.000000 0.000000 0.000000 7.125000 0.000000 0.000000 6.883981 33.620289 1.932711
1.619251 16.752377 -9.499998 -2.045610 3.911955 3.436954 0.000000 0.000000 0.000000 -21.597775 -5.423647 -28.008390 8.720854 16.624703 55.119588 1.703595 2.488736 -25.661803 0.420377 -4.161157 -11.530505 0.000000 0.000000 0.000000 13.530212 6.936048 -45.581390 -13.303958 -18.886701 70.064776 -0.297977 -12.697459 -21.396552 -0.157066 2.553614 -7.038295 -1.953027 -0.121332 22.045306 2.509910 -0.349145 1.395364 4.021470 0.007846 -10.803507 5.374424 1.125295 -18.465511 -5.100098 1.056808 15.032335 -2.448095 0.309543 7.725738 0.000000 0.000000 0.000000 8.845636 -3.021900 -23.931444 28.435020 -39.513416 10.399398 22.947857 -14.558320 13.522798 0.000000 0.000000 0.000000 -7.125000 0.000000 0.000000 -3.035558 15.356891 -2.126295 0.000000 0.000000 0.000000 -8.718748 6.821671 28.611052 -41.122330 -48.720544 -19.278590 -18.219367 -6.880553 3.652914 0.000000 0.000000 0.000000 7.125000 0.000000 0.000000 6.879621 33.765448 1.907141
1.611972 16.761298 -9.380497 -1.955771 4.423473 3.652954 0.000000 0.000000 0.000000 -21.738002 -5.908712 -27.612905 8.707847 16.615996 55.074116 1.681055 2.985244 -25.721299 0.439830 -4.255151 -11.795648 0.000000 0.000000 0.000000 12.986869 7.276323 -46.336474 -12.766995 -18.693920 68.397848 -0.232192 -12.924953 -20.997126 -0.150429 2.498923 -6.886595 -1.952533 -0.259176 22.106604 2.518596 -0.528611 1.385974 4.087838 -0.074836 -10.832590 5.403030 1.105264 -18.385095 -5.137796 1.025469 14.779951 -2.465740 0.292906 7.626905 0.000000 0.000000 0.000000 8.833564 -3.834723 -24.474961 28.672781 -39.728052 10.551065 23.017501 -14.420227 13.588182 0.000000 0.000000 0.000000 -7.125000 0.000000 0.000000 -2.991368 15.279031 -2.100249 0.000000 0.000000 0.000000 -8.704727 6.882779 28.249936 -41.474120 -48.919080 -19.543357 -18.259017 -7.060526 3.714037 0.000000 0.000000 0.000000 7.125000 0.000000 0.000000 6.853553 33.830700 1.888953
1.604562 16.768464 -9.261293 -1.871383 4.892356 3.863390 0.000000 0.000000 0.000000 -21.879966 -6.467490 -27.208388 8.709944 16.617393 55.081437 1.649437 3.592384 -25.778451 0.459386 -4.347506 -12.056528 0.000000 0.000000 0.000000 12.435702 7.657943 -47.074972 -12.245797 -18.490242 66.763249 -0.152046 -13.193527 -20.486864 -0.142938 2.436007 -6.712220 -1.972118 -0.372015 22.167578 2.531928 -0.679784 1.382357 4.162490 -0.143272 -10.856911 5.433859 1.081101 -18.307763 -5.158854 0.984570 14.526820 -2.479254 0.273485 7.527991 0.000000 0.000000 0.000000 8.803249 -4.684810 -24.986906 28.906740 -39.937435 10.700912 23.063400 -14.322507 13.635576 0.000000 0.000000 0.000000 -7.125000 0.000000 0.000000 -2.962540 15.223076 -2.083515 0.000000 0.000000 0.000000 -8.705434 6.940068 27.883668 -41.792164 -49.096306 -19.783376 -18.304290 -7.266920 3.711893 0.000000 0.000000 0.000000 7.125000 0.000000 0.000000 6.816480 33.830163 1.878681
1.597095 16.773678 -9.142157 -1.794638 5.297041 4.068449 0.000000 0.000000 0.000000 -22.021022 -7.070745 -26.805594 8.728745 16.629951 55.147121 1.608619 4.293132 -25.832311 0.478600 -4.436121 -12.307016 0.000000 0.000000 0.000000 11.880610 8.091278 -47.800837 -11.743582 -18.277966 65.171170 -0.064152 -13.480258 -19.897114 -0.135533 2.372649 -6.536718 -2.016417 -0.453353 22.226086 2.549187 -0.795437 1.383304 4.244870 -0.193864 -10.877147 5.451160 1.049887 -18.233792 -5.146519 0.931945 14.292291 -2.480930 0.250908 7.435117 0.000000 0.000000 0.000000 8.755810 -5.563880 -25.470136 29.139495 -40.144052 10.850614 23.095464 -14.279879 13.666049 0.000000 0.000000 0.000000 -7.125000 0.000000 0.000000 -2.942241 15.186824 -2.071507 0.000000 0.000000 0.000000 -8.723181 6.994709 27.520896 -42.075288 -49.252283 -19.997621 -18.349423 -7.485812 3.691214 0.000000 0.000000 0.000000 7.125000 0.000000 0.000000 6.777645 33.810265 1.871118
